<svg width="343" height="59" viewBox="0 0 343 59" fill="none" xmlns="http://www.w3.org/2000/svg">
<path d="M21.666 54.9785C18.8327 57.3249 15.7448 58.498 12.4023 58.498C8.81641 58.498 6.00521 57.2917 3.96875 54.8789C2.02083 52.5326 1.04688 49.3118 1.04688 45.2168V32.0352C1.04688 27.6081 0.947266 25.0736 0.748047 24.4316C0.570964 23.7676 0.438151 23.347 0.349609 23.1699C1.36784 23.2585 2.43034 23.3027 3.53711 23.3027H6.29297C7.02344 23.3027 7.98633 23.2695 9.18164 23.2031V42.4277C9.18164 46.9876 10.4212 49.6328 12.9004 50.3633C13.653 50.5846 14.472 50.6953 15.3574 50.6953C17.9694 50.6953 20.0723 49.7435 21.666 47.8398V23.3027H29.9004V53.75C29.9004 55.6979 29.9889 57.1146 30.166 58H21.666V54.9785Z" fill="#FFCB03"/>
<path d="M49.2578 53.75C49.2578 55.6979 49.3464 57.1146 49.5234 58H41.1895V23.3027H49.2578V26.2578C52.1797 23.8451 55.3008 22.6387 58.6211 22.6387C62.2513 22.6387 65.151 23.8783 67.3203 26.3574C69.4896 28.8145 70.5742 32.0573 70.5742 36.0859V49.3008C70.5742 53.0417 70.6296 55.2884 70.7402 56.041C70.8509 56.7936 70.9948 57.2806 71.1719 57.502C71.3711 57.7233 71.5371 57.9225 71.6699 58.0996L71.6035 58.2324C69.8105 58.0775 68.5046 58 67.6855 58H65.3613C64.653 58 63.7012 58.0332 62.5059 58.0996V40.0039C62.5059 33.5182 60.5358 30.2754 56.5957 30.2754C53.6738 30.2754 51.2279 31.7806 49.2578 34.791V53.75Z" fill="#FFCB03"/>
<path d="M109.602 54.7793C107.986 56.0632 105.883 57.0592 103.293 57.7676C100.703 58.4759 97.5156 58.8301 93.7305 58.8301C89.9674 58.8301 85.9609 58.487 81.7109 57.8008V14.0391C86.0052 13.3529 89.724 13.0098 92.8672 13.0098C96.0326 13.0098 98.6224 13.3086 100.637 13.9062C102.673 14.5039 104.333 15.3118 105.617 16.3301C108.141 18.3001 109.402 20.8568 109.402 24C109.402 27.1211 108.262 29.7109 105.982 31.7695C108.683 32.6107 110.775 34.2044 112.258 36.5508C113.608 38.6536 114.283 40.9889 114.283 43.5566C114.283 46.1022 113.907 48.2826 113.154 50.0977C112.424 51.9128 111.24 53.4733 109.602 54.7793ZM90.5098 30.541C91.4395 30.696 92.6016 30.7734 93.9961 30.7734C95.3906 30.7734 96.5306 30.5964 97.416 30.2422C98.3236 29.8659 99.0208 29.401 99.5078 28.8477C100.305 27.9401 100.703 26.6784 100.703 25.0625C100.703 21.6758 98.7109 19.9824 94.7266 19.9824C93.0443 19.9824 91.6387 20.0488 90.5098 20.1816V30.541ZM95.4238 37.6465C93.5645 37.6465 91.9264 37.7682 90.5098 38.0117V51.0605C92.0592 51.459 93.6862 51.6582 95.3906 51.6582C97.0951 51.6582 98.5892 51.459 99.873 51.0605C101.179 50.64 102.275 50.0755 103.16 49.3672C104.953 47.9062 105.85 46.0469 105.85 43.7891C105.85 39.694 102.374 37.6465 95.4238 37.6465Z" fill="#505047"/>
<path d="M128.361 54.2812C128.361 56.1849 128.406 57.4245 128.494 58H120.061V8.52734H128.361V54.2812Z" fill="#505047"/>
<path d="M160.635 55.9414C157.492 57.6458 154.647 58.498 152.102 58.498C149.556 58.498 147.376 58.2656 145.561 57.8008C143.745 57.3138 142.207 56.6055 140.945 55.6758C138.378 53.7943 137.094 51.0716 137.094 47.5078C137.094 44.3203 138.665 41.6641 141.809 39.5391C145.217 37.237 149.844 36.0859 155.688 36.0859L157.016 36.1191C157.281 36.1413 157.58 36.1634 157.912 36.1855C158.244 36.1855 158.543 36.2077 158.809 36.252C158.632 32.7103 157.104 30.6406 154.227 30.043C153.275 29.8438 152.257 29.7441 151.172 29.7441C150.109 29.7441 149.058 29.8438 148.018 30.043C146.999 30.2201 146.003 30.4635 145.029 30.7734C142.882 31.4596 141.344 32.2454 140.414 33.1309L140.314 33.0645L139.318 25.7266C143.236 23.668 147.52 22.6387 152.168 22.6387C159.384 22.6387 163.999 25.2396 166.014 30.4414C166.656 32.1016 166.977 33.972 166.977 36.0527V48.0723C166.977 50.64 167.884 52.3887 169.699 53.3184L163.689 58.8301C162.428 58.166 161.41 57.2031 160.635 55.9414ZM158.842 42.2285C158.244 42.1178 157.624 42.0625 156.982 42.0625H155.654C150.762 42.0625 147.652 43.1471 146.324 45.3164C145.926 45.9583 145.727 46.6335 145.727 47.3418C145.727 48.0501 145.848 48.681 146.092 49.2344C146.357 49.7656 146.789 50.2083 147.387 50.5625C148.538 51.2266 150.242 51.5586 152.5 51.5586C154.78 51.5586 156.905 51.0163 158.875 49.9316C158.853 49.6882 158.842 49.4336 158.842 49.168V42.2285Z" fill="#505047"/>
<path d="M204.496 54.7793C202.017 57.2585 198.132 58.498 192.842 58.498C187.706 58.498 183.512 56.9375 180.258 53.8164C176.96 50.651 175.311 46.4453 175.311 41.1992C175.311 35.8646 176.938 31.4818 180.191 28.0508C183.645 24.4427 188.26 22.6387 194.037 22.6387C198.132 22.6387 201.563 23.5352 204.33 25.3281L203.002 33.8281L202.77 33.7949C201.707 32.5111 200.589 31.6699 199.416 31.2715C197.512 30.6074 195.609 30.2754 193.705 30.2754C191.801 30.2754 190.307 30.5189 189.223 31.0059C188.138 31.4928 187.208 32.168 186.434 33.0312C184.884 34.8021 184.109 37.1484 184.109 40.0703C184.109 45.25 185.902 48.6367 189.488 50.2305C190.728 50.7617 192.034 51.0273 193.406 51.0273C194.801 51.0273 196.007 50.9056 197.025 50.6621C198.066 50.4186 199.007 50.0866 199.848 49.666C201.641 48.7806 202.858 47.7513 203.5 46.5781L203.732 46.6777L204.496 54.7793Z" fill="#505047"/>
<path d="M220.068 53.6172C220.068 55.5208 220.146 56.9818 220.301 58H211.934V10.5195H220.068V39.6055L235.242 23.3027H245.104L232.021 37.082L239.492 47.2754C241.108 49.8431 242.326 51.7246 243.145 52.9199L245.336 56.0078C246 56.8711 246.553 57.5352 246.996 58H241.75C239.802 58 238.131 58.166 236.736 58.498L226.377 43.3574L220.068 50.0645V53.6172Z" fill="#505047"/>
<path d="M249.42 40.9336C249.42 38.3438 249.863 35.9421 250.748 33.7285C251.633 31.515 252.884 29.5781 254.5 27.918C257.953 24.3984 262.469 22.6387 268.047 22.6387C272.762 22.6387 276.547 24.1992 279.402 27.3203C282.214 30.3307 283.619 34.1159 283.619 38.6758C283.619 40.4245 283.486 41.6198 283.221 42.2617C281.007 42.8815 276.503 43.1914 269.707 43.1914H258.02C258.595 45.5599 259.934 47.4082 262.037 48.7363C264.14 50.0423 266.874 50.6953 270.238 50.6953C273.758 50.6953 276.779 50.0645 279.303 48.8027C279.967 48.4707 280.465 48.1608 280.797 47.873C280.753 48.8027 280.697 49.7546 280.631 50.7285L280.266 55.9082C278.583 57.0592 275.861 57.8561 272.098 58.2988C270.991 58.4316 269.928 58.498 268.91 58.498C263.288 58.498 258.639 56.86 254.965 53.584C251.268 50.2858 249.42 46.069 249.42 40.9336ZM274.787 36.75C273.88 31.9909 271.29 29.6113 267.018 29.6113C263.653 29.6113 261.096 31.0612 259.348 33.9609C258.816 34.8464 258.407 35.8203 258.119 36.8828C258.65 36.9049 259.303 36.9271 260.078 36.9492H262.535C263.354 36.9714 264.14 36.9824 264.893 36.9824H266.785C267.914 36.9824 269.021 36.9714 270.105 36.9492L272.828 36.8496C273.559 36.8275 274.212 36.7943 274.787 36.75Z" fill="#505047"/>
<path d="M314.664 56.1406C311.853 57.7122 309.042 58.498 306.23 58.498C303.419 58.498 300.962 58.0553 298.859 57.1699C296.757 56.2845 294.964 55.0671 293.48 53.5176C290.426 50.3301 288.898 46.1908 288.898 41.0996C288.898 35.8314 290.669 31.4486 294.211 27.9512C297.775 24.4095 302.335 22.6387 307.891 22.6387C309.595 22.6387 311.266 22.86 312.904 23.3027V8.52734H321.039V44.0215C321.039 46.9655 321.172 48.8913 321.438 49.7988C321.725 50.7064 322.035 51.3704 322.367 51.791C322.721 52.2116 323.164 52.61 323.695 52.9863L317.453 58.498C316.302 57.8783 315.372 57.0924 314.664 56.1406ZM307.791 50.8613C309.65 50.8613 311.355 50.5072 312.904 49.7988V31.4043C311.355 30.7624 309.673 30.4414 307.857 30.4414C306.042 30.4414 304.482 30.6849 303.176 31.1719C301.892 31.6589 300.785 32.334 299.855 33.1973C297.908 35.0124 296.934 37.3698 296.934 40.2695C296.934 43.4349 297.819 45.9583 299.59 47.8398C301.493 49.8542 304.227 50.8613 307.791 50.8613Z" fill="#505047"/>
<path d="M343 7C343 10.866 339.866 14 336 14C332.134 14 329 10.866 329 7C329 3.13401 332.134 0 336 0C339.866 0 343 3.13401 343 7Z" fill="#FFCB03"/>
</svg>
