<svg width="347" height="85" viewBox="0 0 347 85" fill="none" xmlns="http://www.w3.org/2000/svg">
<mask id="path-1-outside-1_73_2" maskUnits="userSpaceOnUse" x="2" y="24" width="75" height="39" fill="black">
<rect fill="white" x="2" y="24" width="75" height="39"/>
<path d="M25.666 57.9785C22.8327 60.3249 19.7448 61.498 16.4023 61.498C12.8164 61.498 10.0052 60.2917 7.96875 57.8789C6.02083 55.5326 5.04688 52.3118 5.04688 48.2168V35.0352C5.04688 30.6081 4.94727 28.0736 4.74805 27.4316C4.57096 26.7676 4.43815 26.347 4.34961 26.1699C5.36784 26.2585 6.43034 26.3027 7.53711 26.3027H10.293C11.0234 26.3027 11.9863 26.2695 13.1816 26.2031V45.4277C13.1816 49.9876 14.4212 52.6328 16.9004 53.3633C17.653 53.5846 18.472 53.6953 19.3574 53.6953C21.9694 53.6953 24.0723 52.7435 25.666 50.8398V26.3027H33.9004V56.75C33.9004 58.6979 33.9889 60.1146 34.166 61H25.666V57.9785ZM53.2578 56.75C53.2578 58.6979 53.3464 60.1146 53.5234 61H45.1895V26.3027H53.2578V29.2578C56.1797 26.8451 59.3008 25.6387 62.6211 25.6387C66.2513 25.6387 69.151 26.8783 71.3203 29.3574C73.4896 31.8145 74.5742 35.0573 74.5742 39.0859V52.3008C74.5742 56.0417 74.6296 58.2884 74.7402 59.041C74.8509 59.7936 74.9948 60.2806 75.1719 60.502C75.3711 60.7233 75.5371 60.9225 75.6699 61.0996L75.6035 61.2324C73.8105 61.0775 72.5046 61 71.6855 61H69.3613C68.653 61 67.7012 61.0332 66.5059 61.0996V43.0039C66.5059 36.5182 64.5358 33.2754 60.5957 33.2754C57.6738 33.2754 55.2279 34.7806 53.2578 37.791V56.75Z"/>
</mask>
<path d="M25.666 57.9785C22.8327 60.3249 19.7448 61.498 16.4023 61.498C12.8164 61.498 10.0052 60.2917 7.96875 57.8789C6.02083 55.5326 5.04688 52.3118 5.04688 48.2168V35.0352C5.04688 30.6081 4.94727 28.0736 4.74805 27.4316C4.57096 26.7676 4.43815 26.347 4.34961 26.1699C5.36784 26.2585 6.43034 26.3027 7.53711 26.3027H10.293C11.0234 26.3027 11.9863 26.2695 13.1816 26.2031V45.4277C13.1816 49.9876 14.4212 52.6328 16.9004 53.3633C17.653 53.5846 18.472 53.6953 19.3574 53.6953C21.9694 53.6953 24.0723 52.7435 25.666 50.8398V26.3027H33.9004V56.75C33.9004 58.6979 33.9889 60.1146 34.166 61H25.666V57.9785ZM53.2578 56.75C53.2578 58.6979 53.3464 60.1146 53.5234 61H45.1895V26.3027H53.2578V29.2578C56.1797 26.8451 59.3008 25.6387 62.6211 25.6387C66.2513 25.6387 69.151 26.8783 71.3203 29.3574C73.4896 31.8145 74.5742 35.0573 74.5742 39.0859V52.3008C74.5742 56.0417 74.6296 58.2884 74.7402 59.041C74.8509 59.7936 74.9948 60.2806 75.1719 60.502C75.3711 60.7233 75.5371 60.9225 75.6699 61.0996L75.6035 61.2324C73.8105 61.0775 72.5046 61 71.6855 61H69.3613C68.653 61 67.7012 61.0332 66.5059 61.0996V43.0039C66.5059 36.5182 64.5358 33.2754 60.5957 33.2754C57.6738 33.2754 55.2279 34.7806 53.2578 37.791V56.75Z" fill="#FFCB03"/>
<path d="M25.666 57.9785H26.666V55.852L25.0282 57.2083L25.666 57.9785ZM7.96875 57.8789L7.19931 58.5177L7.20457 58.5239L7.96875 57.8789ZM4.74805 27.4316L3.78181 27.6893L3.78701 27.7088L3.79298 27.728L4.74805 27.4316ZM4.34961 26.1699L4.43624 25.1737L2.65606 25.0189L3.45518 26.6171L4.34961 26.1699ZM13.1816 26.2031H14.1816V25.146L13.1262 25.2047L13.1816 26.2031ZM16.9004 53.3633L16.6178 54.3225L16.6182 54.3226L16.9004 53.3633ZM25.666 50.8398L26.4328 51.4818L26.666 51.2032V50.8398H25.666ZM25.666 26.3027V25.3027H24.666V26.3027H25.666ZM33.9004 26.3027H34.9004V25.3027H33.9004V26.3027ZM34.166 61V62H35.3858L35.1466 60.8039L34.166 61ZM25.666 61H24.666V62H25.666V61ZM25.666 57.9785L25.0282 57.2083C22.3549 59.4221 19.488 60.498 16.4023 60.498V61.498V62.498C20.0015 62.498 23.3104 61.2276 26.3038 58.7487L25.666 57.9785ZM16.4023 61.498V60.498C13.0662 60.498 10.5523 59.3894 8.73293 57.2339L7.96875 57.8789L7.20457 58.5239C9.45813 61.1939 12.5666 62.498 16.4023 62.498V61.498ZM7.96875 57.8789L8.73816 57.2402C6.98354 55.1266 6.04688 52.1588 6.04688 48.2168H5.04688H4.04688C4.04688 52.4649 5.05813 55.9385 7.19934 58.5177L7.96875 57.8789ZM5.04688 48.2168H6.04688V35.0352H5.04688H4.04688V48.2168H5.04688ZM5.04688 35.0352H6.04688C6.04688 32.8166 6.02196 31.0612 5.9714 29.7747C5.94614 29.1321 5.91413 28.5967 5.87439 28.1743C5.83695 27.7763 5.78678 27.4048 5.70311 27.1352L4.74805 27.4316L3.79298 27.728C3.80893 27.7794 3.84591 27.9654 3.88318 28.3616C3.91814 28.7333 3.94839 29.2285 3.97294 29.8532C4.02199 31.1013 4.04688 32.8266 4.04688 35.0352H5.04688ZM4.74805 27.4316L5.71428 27.174C5.54452 26.5374 5.38726 26.0092 5.24404 25.7227L4.34961 26.1699L3.45518 26.6171C3.45436 26.6155 3.46492 26.6372 3.48657 26.6957C3.50691 26.7506 3.53203 26.8243 3.56204 26.9193C3.62214 27.1096 3.69528 27.3648 3.78181 27.6893L4.74805 27.4316ZM4.34961 26.1699L4.26298 27.1662C5.31227 27.2574 6.40377 27.3027 7.53711 27.3027V26.3027V25.3027C6.45691 25.3027 5.42341 25.2595 4.43624 25.1737L4.34961 26.1699ZM7.53711 26.3027V27.3027H10.293V26.3027V25.3027H7.53711V26.3027ZM10.293 26.3027V27.3027C11.0498 27.3027 12.0334 27.2685 13.2371 27.2016L13.1816 26.2031L13.1262 25.2047C11.9393 25.2706 10.9971 25.3027 10.293 25.3027V26.3027ZM13.1816 26.2031H12.1816V45.4277H13.1816H14.1816V26.2031H13.1816ZM13.1816 45.4277H12.1816C12.1816 47.7805 12.4986 49.7468 13.2058 51.2559C13.9295 52.8002 15.0661 53.8653 16.6178 54.3225L16.9004 53.3633L17.183 52.4041C16.2555 52.1308 15.5327 51.5081 15.0168 50.4072C14.4844 49.2711 14.1816 47.6349 14.1816 45.4277H13.1816ZM16.9004 53.3633L16.6182 54.3226C17.4734 54.5742 18.3886 54.6953 19.3574 54.6953V53.6953V52.6953C18.5554 52.6953 17.8326 52.5951 17.1826 52.4039L16.9004 53.3633ZM19.3574 53.6953V54.6953C22.2477 54.6953 24.638 53.6256 26.4328 51.4818L25.666 50.8398L24.8993 50.1979C23.5066 51.8614 21.6911 52.6953 19.3574 52.6953V53.6953ZM25.666 50.8398H26.666V26.3027H25.666H24.666V50.8398H25.666ZM25.666 26.3027V27.3027H33.9004V26.3027V25.3027H25.666V26.3027ZM33.9004 26.3027H32.9004V56.75H33.9004H34.9004V26.3027H33.9004ZM33.9004 56.75H32.9004C32.9004 58.7063 32.9877 60.2072 33.1854 61.1961L34.166 61L35.1466 60.8039C34.9902 60.022 34.9004 58.6896 34.9004 56.75H33.9004ZM34.166 61V60H25.666V61V62H34.166V61ZM25.666 61H26.666V57.9785H25.666H24.666V61H25.666ZM53.5234 61V62H54.7432L54.504 60.8039L53.5234 61ZM45.1895 61H44.1895V62H45.1895V61ZM45.1895 26.3027V25.3027H44.1895V26.3027H45.1895ZM53.2578 26.3027H54.2578V25.3027H53.2578V26.3027ZM53.2578 29.2578H52.2578V31.3804L53.8945 30.0289L53.2578 29.2578ZM71.3203 29.3574L70.5677 30.0159L70.5707 30.0193L71.3203 29.3574ZM74.7402 59.041L73.7509 59.1865L74.7402 59.041ZM75.1719 60.502L74.391 61.1266L74.4092 61.1493L74.4286 61.1709L75.1719 60.502ZM75.6699 61.0996L76.5643 61.5468L76.8407 60.994L76.4699 60.4996L75.6699 61.0996ZM75.6035 61.2324L75.5174 62.2287L76.1942 62.2872L76.4979 61.6796L75.6035 61.2324ZM66.5059 61.0996H65.5059V62.1567L66.5613 62.0981L66.5059 61.0996ZM53.2578 37.791L52.4211 37.2434L52.2578 37.4929V37.791H53.2578ZM53.2578 56.75H52.2578C52.2578 58.7063 52.3451 60.2072 52.5429 61.1961L53.5234 61L54.504 60.8039C54.3476 60.022 54.2578 58.6896 54.2578 56.75H53.2578ZM53.5234 61V60H45.1895V61V62H53.5234V61ZM45.1895 61H46.1895V26.3027H45.1895H44.1895V61H45.1895ZM45.1895 26.3027V27.3027H53.2578V26.3027V25.3027H45.1895V26.3027ZM53.2578 26.3027H52.2578V29.2578H53.2578H54.2578V26.3027H53.2578ZM53.2578 29.2578L53.8945 30.0289C56.664 27.742 59.5657 26.6387 62.6211 26.6387V25.6387V24.6387C59.0359 24.6387 55.6954 25.9481 52.6211 28.4867L53.2578 29.2578ZM62.6211 25.6387V26.6387C65.9959 26.6387 68.6091 27.7774 70.5677 30.0159L71.3203 29.3574L72.0729 28.6989C69.693 25.9791 66.5067 24.6387 62.6211 24.6387V25.6387ZM71.3203 29.3574L70.5707 30.0193C72.5438 32.2542 73.5742 35.2428 73.5742 39.0859H74.5742H75.5742C75.5742 34.8718 74.4353 31.3747 72.07 28.6956L71.3203 29.3574ZM74.5742 39.0859H73.5742V52.3008H74.5742H75.5742V39.0859H74.5742ZM74.5742 52.3008H73.5742C73.5742 56.0043 73.6268 58.3429 73.7509 59.1865L74.7402 59.041L75.7296 58.8955C75.6323 58.2339 75.5742 56.079 75.5742 52.3008H74.5742ZM74.7402 59.041L73.7509 59.1865C73.8101 59.5889 73.882 59.9491 73.9721 60.254C74.0564 60.5392 74.1811 60.8642 74.391 61.1266L75.1719 60.502L75.9527 59.8773C75.9856 59.9183 75.9498 59.8892 75.8902 59.6874C75.8364 59.5053 75.7811 59.2457 75.7296 58.8955L74.7402 59.041ZM75.1719 60.502L74.4286 61.1709C74.6142 61.3771 74.7599 61.5529 74.8699 61.6996L75.6699 61.0996L76.4699 60.4996C76.3144 60.2922 76.128 60.0695 75.9152 59.833L75.1719 60.502ZM75.6699 61.0996L74.7755 60.6524L74.7091 60.7852L75.6035 61.2324L76.4979 61.6796L76.5643 61.5468L75.6699 61.0996ZM75.6035 61.2324L75.6896 60.2361C73.8935 60.0809 72.5508 60 71.6855 60V61V62C72.4583 62 73.7276 62.074 75.5174 62.2287L75.6035 61.2324ZM71.6855 61V60H69.3613V61V62H71.6855V61ZM69.3613 61V60C68.6262 60 67.6535 60.0343 66.4504 60.1011L66.5059 61.0996L66.5613 62.0981C67.7489 62.0321 68.6798 62 69.3613 62V61ZM66.5059 61.0996H67.5059V43.0039H66.5059H65.5059V61.0996H66.5059ZM66.5059 43.0039H67.5059C67.5059 39.6924 67.0087 37.0414 65.883 35.1883C64.7082 33.2546 62.8987 32.2754 60.5957 32.2754V33.2754V34.2754C62.2328 34.2754 63.3783 34.9176 64.1737 36.2267C65.0179 37.6165 65.5059 39.8297 65.5059 43.0039H66.5059ZM60.5957 33.2754V32.2754C57.256 32.2754 54.527 34.0254 52.4211 37.2434L53.2578 37.791L54.0946 38.3386C55.9287 35.5358 58.0916 34.2754 60.5957 34.2754V33.2754ZM53.2578 37.791H52.2578V56.75H53.2578H54.2578V37.791H53.2578Z" fill="#505047" mask="url(#path-1-outside-1_73_2)"/>
<path d="M113.602 57.7793C111.986 59.0632 109.883 60.0592 107.293 60.7676C104.703 61.4759 101.516 61.8301 97.7305 61.8301C93.9674 61.8301 89.9609 61.487 85.7109 60.8008V17.0391C90.0052 16.3529 93.724 16.0098 96.8672 16.0098C100.033 16.0098 102.622 16.3086 104.637 16.9062C106.673 17.5039 108.333 18.3118 109.617 19.3301C112.141 21.3001 113.402 23.8568 113.402 27C113.402 30.1211 112.262 32.7109 109.982 34.7695C112.683 35.6107 114.775 37.2044 116.258 39.5508C117.608 41.6536 118.283 43.9889 118.283 46.5566C118.283 49.1022 117.907 51.2826 117.154 53.0977C116.424 54.9128 115.24 56.4733 113.602 57.7793ZM94.5098 33.541C95.4395 33.696 96.6016 33.7734 97.9961 33.7734C99.3906 33.7734 100.531 33.5964 101.416 33.2422C102.324 32.8659 103.021 32.401 103.508 31.8477C104.305 30.9401 104.703 29.6784 104.703 28.0625C104.703 24.6758 102.711 22.9824 98.7266 22.9824C97.0443 22.9824 95.6387 23.0488 94.5098 23.1816V33.541ZM99.4238 40.6465C97.5645 40.6465 95.9264 40.7682 94.5098 41.0117V54.0605C96.0592 54.459 97.6862 54.6582 99.3906 54.6582C101.095 54.6582 102.589 54.459 103.873 54.0605C105.179 53.64 106.275 53.0755 107.16 52.3672C108.953 50.9062 109.85 49.0469 109.85 46.7891C109.85 42.694 106.374 40.6465 99.4238 40.6465ZM132.361 57.2812C132.361 59.1849 132.406 60.4245 132.494 61H124.061V11.5273H132.361V57.2812ZM164.635 58.9414C161.492 60.6458 158.647 61.498 156.102 61.498C153.556 61.498 151.376 61.2656 149.561 60.8008C147.745 60.3138 146.207 59.6055 144.945 58.6758C142.378 56.7943 141.094 54.0716 141.094 50.5078C141.094 47.3203 142.665 44.6641 145.809 42.5391C149.217 40.237 153.844 39.0859 159.688 39.0859L161.016 39.1191C161.281 39.1413 161.58 39.1634 161.912 39.1855C162.244 39.1855 162.543 39.2077 162.809 39.252C162.632 35.7103 161.104 33.6406 158.227 33.043C157.275 32.8438 156.257 32.7441 155.172 32.7441C154.109 32.7441 153.058 32.8438 152.018 33.043C150.999 33.2201 150.003 33.4635 149.029 33.7734C146.882 34.4596 145.344 35.2454 144.414 36.1309L144.314 36.0645L143.318 28.7266C147.236 26.668 151.52 25.6387 156.168 25.6387C163.384 25.6387 167.999 28.2396 170.014 33.4414C170.656 35.1016 170.977 36.972 170.977 39.0527V51.0723C170.977 53.64 171.884 55.3887 173.699 56.3184L167.689 61.8301C166.428 61.166 165.41 60.2031 164.635 58.9414ZM162.842 45.2285C162.244 45.1178 161.624 45.0625 160.982 45.0625H159.654C154.762 45.0625 151.652 46.1471 150.324 48.3164C149.926 48.9583 149.727 49.6335 149.727 50.3418C149.727 51.0501 149.848 51.681 150.092 52.2344C150.357 52.7656 150.789 53.2083 151.387 53.5625C152.538 54.2266 154.242 54.5586 156.5 54.5586C158.78 54.5586 160.905 54.0163 162.875 52.9316C162.853 52.6882 162.842 52.4336 162.842 52.168V45.2285ZM208.496 57.7793C206.017 60.2585 202.132 61.498 196.842 61.498C191.706 61.498 187.512 59.9375 184.258 56.8164C180.96 53.651 179.311 49.4453 179.311 44.1992C179.311 38.8646 180.938 34.4818 184.191 31.0508C187.645 27.4427 192.26 25.6387 198.037 25.6387C202.132 25.6387 205.563 26.5352 208.33 28.3281L207.002 36.8281L206.77 36.7949C205.707 35.5111 204.589 34.6699 203.416 34.2715C201.512 33.6074 199.609 33.2754 197.705 33.2754C195.801 33.2754 194.307 33.5189 193.223 34.0059C192.138 34.4928 191.208 35.168 190.434 36.0312C188.884 37.8021 188.109 40.1484 188.109 43.0703C188.109 48.25 189.902 51.6367 193.488 53.2305C194.728 53.7617 196.034 54.0273 197.406 54.0273C198.801 54.0273 200.007 53.9056 201.025 53.6621C202.066 53.4186 203.007 53.0866 203.848 52.666C205.641 51.7806 206.858 50.7513 207.5 49.5781L207.732 49.6777L208.496 57.7793ZM224.068 56.6172C224.068 58.5208 224.146 59.9818 224.301 61H215.934V13.5195H224.068V42.6055L239.242 26.3027H249.104L236.021 40.082L243.492 50.2754C245.108 52.8431 246.326 54.7246 247.145 55.9199L249.336 59.0078C250 59.8711 250.553 60.5352 250.996 61H245.75C243.802 61 242.131 61.166 240.736 61.498L230.377 46.3574L224.068 53.0645V56.6172ZM253.42 43.9336C253.42 41.3438 253.863 38.9421 254.748 36.7285C255.633 34.515 256.884 32.5781 258.5 30.918C261.953 27.3984 266.469 25.6387 272.047 25.6387C276.762 25.6387 280.547 27.1992 283.402 30.3203C286.214 33.3307 287.619 37.1159 287.619 41.6758C287.619 43.4245 287.486 44.6198 287.221 45.2617C285.007 45.8815 280.503 46.1914 273.707 46.1914H262.02C262.595 48.5599 263.934 50.4082 266.037 51.7363C268.14 53.0423 270.874 53.6953 274.238 53.6953C277.758 53.6953 280.779 53.0645 283.303 51.8027C283.967 51.4707 284.465 51.1608 284.797 50.873C284.753 51.8027 284.697 52.7546 284.631 53.7285L284.266 58.9082C282.583 60.0592 279.861 60.8561 276.098 61.2988C274.991 61.4316 273.928 61.498 272.91 61.498C267.288 61.498 262.639 59.86 258.965 56.584C255.268 53.2858 253.42 49.069 253.42 43.9336ZM278.787 39.75C277.88 34.9909 275.29 32.6113 271.018 32.6113C267.653 32.6113 265.096 34.0612 263.348 36.9609C262.816 37.8464 262.407 38.8203 262.119 39.8828C262.65 39.9049 263.303 39.9271 264.078 39.9492H266.535C267.354 39.9714 268.14 39.9824 268.893 39.9824H270.785C271.914 39.9824 273.021 39.9714 274.105 39.9492L276.828 39.8496C277.559 39.8275 278.212 39.7943 278.787 39.75ZM318.664 59.1406C315.853 60.7122 313.042 61.498 310.23 61.498C307.419 61.498 304.962 61.0553 302.859 60.1699C300.757 59.2845 298.964 58.0671 297.48 56.5176C294.426 53.3301 292.898 49.1908 292.898 44.0996C292.898 38.8314 294.669 34.4486 298.211 30.9512C301.775 27.4095 306.335 25.6387 311.891 25.6387C313.595 25.6387 315.266 25.86 316.904 26.3027V11.5273H325.039V47.0215C325.039 49.9655 325.172 51.8913 325.438 52.7988C325.725 53.7064 326.035 54.3704 326.367 54.791C326.721 55.2116 327.164 55.61 327.695 55.9863L321.453 61.498C320.302 60.8783 319.372 60.0924 318.664 59.1406ZM311.791 53.8613C313.65 53.8613 315.355 53.5072 316.904 52.7988V34.4043C315.355 33.7624 313.673 33.4414 311.857 33.4414C310.042 33.4414 308.482 33.6849 307.176 34.1719C305.892 34.6589 304.785 35.334 303.855 36.1973C301.908 38.0124 300.934 40.3698 300.934 43.2695C300.934 46.4349 301.819 48.9583 303.59 50.8398C305.493 52.8542 308.227 53.8613 311.791 53.8613Z" fill="#505047"/>
<circle cx="340" cy="10" r="7" fill="#FFCB03"/>
</svg>